<svg xmlns="http://www.w3.org/2000/svg" width="768" height="768" viewBox="0 0 0 0 768 0 768">
<g transform="translate(208 128)">
	<!-- <circle xmlns="http://www.w3.org/2000/svg" fill="white" cx="176" cy="268" r="300"/> -->
	<!-- <g fill="#076B42"> -->
    <g fill="white">
        <path d="M324.081 428.573c-6.004.46-11.237-4.014-11.697-10.018-.46-6.004 4.025-11.248 10.029-11.697 6.004-.471 11.226 4.026 11.697 10.018.46 6.004-4.025 11.237-10.029 11.697m-64.547-16.286l-3.474-44.902 11.042-.863 2.714 35.068 18.863-1.46.748 9.845zm.713 51.435c-2.427 2.83-5.854 4.555-9.627 4.854-.379.023-.747.034-1.115.034-3.382 0-6.625-1.184-9.156-3.358-3.991-3.405-4.267-7.016-4.945-15.723-.668-8.707-.944-12.318 2.461-16.298 2.438-2.852 5.866-4.577 9.65-4.853 3.738-.299 7.464.908 10.259 3.312 3.991 3.416 4.267 7.016 4.934 15.723.679 8.707.955 12.318-2.461 16.309m-13.261-95.647l3.473 44.902-11.053.863-3.462-44.914zm-37.588 103.342l-3.048-39.543 3.589-.276 2.806 36.288 20.646-1.599.253 3.255zm-11.8-99.524l30.525-2.369.771 9.845-19.496 1.507.587 7.511 16.643-1.289.759 9.834-16.643 1.288.598 7.879 19.495-1.507.759 9.846-30.525 2.358zm-20.864 102.054l-3.06-39.554 24.246-1.863.253 3.266-20.657 1.587 1.139 14.723 17.585-1.358.254 3.255-17.586 1.358 1.161 15.032 20.657-1.587.242 3.266zm-18.794 1.438l-2.979.241-.08-.218-15.965-38.324 3.796-.299 13.238 32.17 8.143-33.814 3.785-.299zm-34.171-57.324c-5.095-4.359-5.394-10.685-5.912-17.437-.518-6.74-1.196-13.043 3.163-18.126 3.025-3.543 6.866-5.602 12.1-6.016 8.522-.655 15.757 3.543 18.149 13.319l-11.214.863c-.897-2.461-2.461-4.624-6.107-4.336-2.025.149-3.474 1.081-4.21 2.22-.909 1.403-1.472 3.025-.851 11.225.633 8.201 1.449 9.731 2.565 10.973.897 1.012 2.473 1.713 4.497 1.552 3.658-.276 4.865-2.656 5.371-5.233l11.226-.862c-.874 10.029-7.384 15.285-15.895 15.941-5.245.402-9.351-1.047-12.882-4.083m-25.534 7.05c-5.233.403-9.339-1.058-12.87-4.083-5.095-4.37-5.394-10.685-5.912-17.436-.529-6.74-1.196-13.043 3.163-18.138 3.025-3.531 6.866-5.602 12.1-6.004 8.511-.656 15.745 3.531 18.149 13.319l-11.214.862c-.897-2.461-2.461-4.635-6.119-4.347-2.012.149-3.462 1.092-4.198 2.22-.908 1.403-1.483 3.036-.851 11.237.633 8.2 1.449 9.718 2.553 10.972.909 1.001 2.485 1.702 4.509 1.553 3.658-.288 4.865-2.657 5.36-5.233l11.237-.874c-.874 10.04-7.384 15.297-15.907 15.952m-31.054 2.013l-2.6-6.521-13.813 1.069-1.691 6.855-11.547.886 12.881-46.156 8.512-.656 19.794 43.637zm124.068-5.889l-5.578 9.144-3.934.311 5.061-9.121zm-24.993-46.926l2.231 28.892c.322 4.152 2.772 6.383 6.441 6.096 3.658-.277 5.866-2.864 5.544-7.039l-2.232-28.87 11.042-.851 2.243 29.134c.77 9.845-6.51 16.746-15.838 17.459-9.339.725-17.448-5.003-18.218-14.837l-2.243-29.133zm182.576 35.747l-36.989-56.703c-2.151-3.393-6.648-5.774-10.006-5.521l-67.135 5.176c-.621.046-1.219-.115-1.771.149L31.215 368.719c-18.195 1.403-31.583 21.807-29.789 45.04l4.417 57.163c1.794 23.28 18.149 41.395 36.345 40.003l201.543-15.562c.632.207 1.253-.092 1.943-.149l67.147-5.176c3.335-.265 7.499-3.232 9.213-6.832l27.627-60.407c1.713-3.623 1.334-9.35-.829-12.743"/>
        <path d="M255.135 434c-1.829-1.576-4.095-2.393-6.545-2.393-.276 0-.552 0-.828.023-2.737.219-5.199 1.45-6.924 3.474-2.484 2.887-2.484 5.82-1.84 14.147.644 8.316 1.092 11.225 3.991 13.698 2.036 1.749 4.623 2.577 7.372 2.358 2.738-.218 5.199-1.438 6.924-3.462 2.473-2.887 2.473-5.82 1.829-14.147-.632-8.316-1.081-11.214-3.979-13.698M323.439 59.178c6.062 0 10.95 5.015 10.95 11.099 0 6.096-4.888 11.099-10.95 11.099-6.05 0-10.915-5.003-10.915-11.099 0-6.084 4.865-11.099 10.915-11.099m0 24.142c7.2 0 13.043-5.831 13.043-13.043 0-7.212-5.843-13.043-13.043-13.043-7.2 0-13.043 5.831-13.043 13.043 0 7.212 5.843 13.043 13.043 13.043"/>
        <path d="M323.622 77.592c2.024 0 3.324-.61 4.716-1.875l-1.3-1.299c-1.185 1.046-2.082 1.368-3.416 1.368-3.278 0-4.394-2.484-4.394-5.509 0-3.025 1.116-5.555 4.394-5.555 1.334 0 2.231.368 3.416 1.414l1.3-1.299c-1.472-1.3-2.692-1.91-4.716-1.91-4.175 0-6.418 3.129-6.418 7.35 0 4.21 2.243 7.315 6.418 7.315M271.04 316.851c22.336 0 40.497-18.172 40.497-40.497s-18.161-40.486-40.497-40.486c-22.325 0-40.486 18.161-40.486 40.486 0 22.325 18.161 40.497 40.486 40.497M80.268 316.851c22.325 0 40.486-18.172 40.486-40.497s-18.161-40.486-40.486-40.486c-22.324 0-40.485 18.161-40.485 40.486 0 22.325 18.161 40.497 40.485 40.497"/>
        <path d="M80.269 215.361c33.63 0 60.993 27.362 60.993 60.993s-27.363 60.993-60.993 60.993c-33.631 0-60.994-27.362-60.994-60.993s27.363-60.993 60.994-60.993m30.893-37.323c2.358-3.105 8.661-11.019 8.661-11.019s7.28 6.372 10.052 8.477l47.709 36.679 13.629 61.154c2.013 7.085-2.105 14.481-9.201 16.493-7.097 2.025-14.492-2.105-16.505-9.201l-11.18-52.562-40.612-31.296c-5.877-4.463-7.016-12.848-2.553-18.725m27.96-40.037c4.658-5.728 13.078-6.602 18.794-1.944l46.236 34.459 39.014-.828c7.372.276 13.123 6.498 12.836 13.859-.276 7.373-6.476 13.135-13.848 12.848l-47.939.483-53.137-40.095c-2.795-2.266-9.455-7.867-9.455-7.867s5.118-7.982 7.499-10.915m52.885-81.88c19.737 0 35.747 16.01 35.747 35.747 0 19.748-16.01 35.758-35.747 35.758-19.749 0-35.747-16.01-35.747-35.758 0-19.737 15.998-35.747 35.747-35.747m140.032 220.233c0 33.631-27.362 60.993-61.005 60.993-33.63 0-60.981-27.362-60.981-60.993s27.351-60.993 60.981-60.993c33.643 0 61.005 27.362 61.005 60.993M21.84 361.995h14.285l195.631-15.102a8.514 8.514 0 0 1 1.979-.218l.575.011-.15.023 67.193-5.187c5.75-.437 12.479 3.152 15.837 8.442l7.845 12.031h4.29c10.374 0 18.862-8.488 18.862-18.863V135.16c0-10.374-6.866-23.866-15.251-29.973L192.708 5.721c-8.384-6.108-22.255-6.315-30.824-.472L18.551 105.658c-8.569 5.843-15.585 19.128-15.585 29.502v207.972c0 10.375 8.5 18.863 18.874 18.863M52.858 412.518l7.821-.61-4.716-11.685z"/>
	</g>
</g>
</svg>