<svg xmlns="http://www.w3.org/2000/svg" viewBox="0 0 256 256">
	<g stroke-width="3px" stroke="black">
		<path d="M222.3,26.6c-0.5,0.3-15.8,15.3-33.9,33.4l-33,32.9l-25.1-1.2c-13.8-0.6-25.2-1.2-25.3-1.3c-0.1-0.1-4.7-12.6-10.2-27.8C89.2,47.4,84.4,34.5,84.2,34c-0.8-1.5-2.4-2.4-4.7-2.4c-1.7,0-2.4,0.2-3.4,1.2c-0.7,0.8-3.2,6.1-6.2,13.2l-5,12l-26.1,7.8C10.6,74.4,10.6,74.4,10,77.8c-0.2,1.3,0.6,3.6,4.2,12.7c2.4,6.1,5,12.1,5.8,13.2c0.7,1.2,2.4,2.8,3.6,3.7c4.2,3,4.9,3.2,20,3.5c13.4,0.3,13.7,0.3,16.1,1.5c1.4,0.6,3.5,2.1,4.5,3.1c3.9,3.8,3.9,3.8,7,32.8l2.8,26.1l-23.5,23.5c-13,13-23.8,24-24,24.6c-2.2,4.4,2.9,9.2,7.2,6.9c1.5-0.8,194.9-194.3,195.6-195.7C231.5,29.4,226.4,24.4,222.3,26.6z M88,75.7c8.6,23.7,9.2,24.9,11.9,25.4c1.3,0.2,41.2,2.1,44.1,2.1c0.9,0-4.8,5.9-29.5,30.7c-16.8,16.8-30.7,30.6-30.8,30.5c0-0.1-1.2-9.9-2.4-21.9c-2.5-23.4-2.9-25.2-5.9-29.9c-3.2-5-9-9.4-14.9-11.3c-2.7-0.9-4.5-1-16.5-1.2c-12.7-0.3-13.6-0.3-14.4-1.2c-0.5-0.5-2.4-4.5-4.1-8.8l-3.2-7.9l24.5-7.3c13.5-4,24.9-7.7,25.5-8.1c0.6-0.5,2.3-3.8,3.9-7.7c1.8-4.3,3-6.7,3.2-6.4C79.7,52.8,83.6,63.2,88,75.7z"/>
		<path d="M238,69.8c-0.7,0.4-4.6,4.8-8.5,9.8c-7.7,9.6-10.2,11.8-15.5,13.8c-4.5,1.7-7.4,1.9-18.8,1.3l-10.6-0.5l-5,5c-2.7,2.7-4.9,5-4.8,5.1c0.4,0.4,29.9,1.6,32.9,1.3c1.9-0.1,4.7-0.6,6.2-1c6.7-1.7,15.2-7.1,19-12.1c1-1.3,2-2.4,2.2-2.4c0.2,0,0.4,26.7,0.4,59.3c0,64.4,0.1,61.3-2.5,63.3c-1,0.8-1.9,1-4.2,1c-3.4,0-5.4-0.8-6.3-2.7c-0.4-0.7-4.4-12.6-9-26.4c-5.4-16.1-8.9-26.1-9.9-27.7c-1.7-2.9-5.2-5.6-8.3-6.7c-3-1-6.5-0.6-11.4,1.2c-7.2,2.5-11.3,3-24.9,3c-12.6,0-16.6-0.4-27-2.5l-4.2-0.9l-5.1,5.1c-2.9,2.9-4.6,4.8-3.9,4.6c1-0.5,2.1-0.3,6,0.6c12.1,2.9,22,4.1,34.8,4.1c12.7,0,22-1.4,29.4-4.3c2.6-1,3.6-0.9,4.9,0.8c0.5,0.6,4.7,12.5,9.3,26.4c4.6,13.9,9,26.4,9.8,27.9c1.6,3,3.5,4.9,6.9,6.6c2.1,1.1,3,1.3,7.7,1.4c4.6,0.1,5.7,0,7.9-0.8c3.7-1.4,7.2-4.7,8.9-8.4l1.3-2.9l0.1-69.3c0.1-76.9,0.3-71.6-2.9-73.2C241,68.8,239.7,68.8,238,69.8z"/>
		<path d="M109.5,169.3l-6.6,6.6l-2.9,17.5c-1.6,9.6-3,18.1-3.2,18.9c-0.3,1.5-0.4,1.5-2.4,1.5c-2.3,0-4.3-0.9-5.2-2.4c-0.3-0.5-1-5-1.5-10.1l-1-9.2l-4.8,4.8l-4.8,4.8l0.6,5.4c0.6,6.8,2,9.9,5.5,13.1c3.4,3.1,6.4,4.2,11.8,4.2c3.1,0,4.8-0.2,6.1-0.9c2.3-1,5-4,5.7-6.1c0.3-0.9,2.4-12.9,4.7-26.7c2.3-13.8,4.3-25.8,4.6-26.7c0.2-0.8,0.4-1.5,0.3-1.5C116.2,162.6,113.2,165.6,109.5,169.3z"/>
	</g>
</svg>