<svg xmlns="http://www.w3.org/2000/svg" viewBox="0 0 24 24">
	<path d="M19.5 9h2.25a.75.75 0 0 1 .75.75v3a.75.75 0 0 1-.75.75h-7.5a.75.75 0 0 0 0 1.5h7.5A2.25 2.25 0 0 0 24 12.75v-3a2.25 2.25 0 0 0-2.25-2.25H19.5a.75.75 0 0 0 0 1.5zM5.25 13.5h-1.5l.75.75v-6L3.75 9h7.5a.75.75 0 0 0 0-1.5h-7.5a.75.75 0 0 0-.75.75v6c0 .414.336.75.75.75h1.5a.75.75 0 0 0 0-1.5zM15 12v2.25a.75.75 0 0 0 1.5 0V12a.75.75 0 0 0-1.5 0zM0 8.25v6a.75.75 0 0 0 1.5 0v-6a.75.75 0 0 0-1.5 0zm1.28 15.53l22.5-22.5A.75.75 0 0 0 22.72.22L.22 22.72a.75.75 0 1 0 1.06 1.06zM4.5.75A2.25 2.25 0 0 1 2.25 3 2.25 2.25 0 0 0 0 5.25a.75.75 0 0 0 1.5 0 .75.75 0 0 1 .75-.75A3.75 3.75 0 0 0 6 .75a.75.75 0 0 0-1.5 0z"/>
</svg>