<svg xmlns="http://www.w3.org/2000/svg" viewBox="0 0 24 24">
	<path d="M14.25 18.75a2.25 2.25 0 1 1-4.5 0 2.25 2.25 0 0 1 4.5 0zm1.5 0a3.75 3.75 0 1 0-7.5 0 3.75 3.75 0 0 0 7.5 0zm2.08-5.833a8.25 8.25 0 0 0-11.666 0 .75.75 0 0 0 1.06 1.06 6.75 6.75 0 0 1 9.546 0 .75.75 0 0 0 1.06-1.06zm3.185-3.182c-4.979-4.98-13.051-4.98-18.03 0a.75.75 0 1 0 1.06 1.06c4.394-4.393 11.516-4.393 15.91 0a.75.75 0 1 0 1.06-1.06zm2.746-3.603C17.136-.043 6.864-.043.24 6.132A.75.75 0 1 0 1.26 7.23c6.05-5.638 15.429-5.638 21.478 0a.75.75 0 0 0 1.022-1.098z"/>
</svg>